<svg width="43" height="27" viewBox="0 0 43 27" fill="none" xmlns="http://www.w3.org/2000/svg">
<g clip-path="url(#clip0_5504_28319)">
<path d="M0 0V11.907H11.907V0H0ZM8.3025 8.397C8.0865 8.694 7.776 8.9235 7.4385 9.0585C7.0065 9.2205 6.5475 9.3015 6.0885 9.288H3.402V2.6055H5.913C6.6555 2.6055 7.2225 2.754 7.6275 3.051C8.0325 3.348 8.235 3.78 8.235 4.3335C8.2485 4.6305 8.1675 4.914 8.019 5.157C7.857 5.4 7.641 5.589 7.371 5.7105C7.7355 5.8185 8.046 6.0345 8.2755 6.3315C8.4915 6.6285 8.5995 6.993 8.586 7.371C8.613 7.7355 8.505 8.1 8.3025 8.397ZM6.6015 5.13C6.7905 4.968 6.8985 4.7385 6.885 4.482C6.885 3.9555 6.5205 3.6855 5.805 3.6855H4.779V5.346H5.805C6.1425 5.3595 6.4125 5.2785 6.6015 5.13ZM5.967 6.4125H4.7655V8.2215H5.9535C6.3585 8.2215 6.669 8.1405 6.885 7.992C7.101 7.8435 7.2225 7.6005 7.209 7.3305C7.209 6.7095 6.7905 6.399 5.967 6.4125ZM14.877 0V11.907H26.784V0H14.877ZM23.1795 8.397C22.9635 8.694 22.653 8.9235 22.3155 9.0585C21.8835 9.2205 21.4245 9.3015 20.952 9.288H18.279V2.6055H20.79C21.5325 2.6055 22.0995 2.754 22.518 3.051C22.923 3.348 23.1255 3.78 23.1255 4.3335C23.139 4.6305 23.058 4.914 22.9095 5.157C22.7475 5.4 22.5315 5.589 22.2615 5.7105C22.626 5.8185 22.9365 6.0345 23.166 6.3315C23.382 6.6285 23.49 6.993 23.4765 7.371C23.49 7.7355 23.382 8.1 23.1795 8.397ZM21.4785 5.13C21.6675 4.968 21.7755 4.7385 21.762 4.482C21.762 3.9555 21.3975 3.6855 20.682 3.6855H19.656V5.346H20.682C21.0195 5.3595 21.2895 5.2785 21.4785 5.13ZM20.844 6.4125H19.6425V8.2215H20.8305C21.2355 8.2215 21.546 8.1405 21.762 7.992C21.978 7.8435 22.0995 7.6005 22.086 7.3305C22.086 6.7095 21.681 6.399 20.844 6.4125ZM29.754 11.907H41.661V0H29.754V11.907ZM38.2995 8.8695C38.0025 9.0315 37.665 9.153 37.341 9.234C36.963 9.3285 36.5715 9.369 36.1935 9.369C35.7075 9.3825 35.208 9.3015 34.749 9.1395C34.344 8.991 33.966 8.7615 33.6555 8.4645C33.3585 8.154 33.1155 7.7895 32.9805 7.3845C32.8185 6.9255 32.7375 6.4395 32.7375 5.9535C32.724 5.4675 32.8185 4.995 32.9805 4.5495C33.1425 4.1445 33.372 3.78 33.6825 3.4695C34.0065 3.159 34.3845 2.9295 34.7895 2.781C35.2485 2.619 35.748 2.538 36.234 2.538C36.585 2.538 36.936 2.5785 37.287 2.646C37.611 2.7135 37.9215 2.835 38.205 2.9835V4.293C37.9485 4.1175 37.665 3.996 37.368 3.9015C37.0575 3.807 36.7335 3.7665 36.4095 3.7665C36.0045 3.753 35.5995 3.8475 35.235 4.023C34.911 4.185 34.6545 4.455 34.4925 4.7655C34.3035 5.13 34.2225 5.535 34.236 5.9535C34.2225 6.3585 34.3035 6.777 34.4925 7.1415C34.6545 7.4655 34.911 7.722 35.2215 7.884C35.586 8.0595 35.9775 8.154 36.3825 8.1405C37.0575 8.1405 37.719 7.9515 38.2995 7.6005V8.8695Z" fill="black"/>
<path d="M13.3387 24.9184H18.5362V26.7814H11.0977V16.3594H18.2662V18.2224H13.3387V20.4904H17.7127V22.3534H13.3387V24.9184Z" fill="#EB0000"/>
<path d="M31.224 16.3594H33.627C33.222 18.1144 32.79 19.8694 32.331 21.6244C31.872 23.3524 31.3995 25.0669 30.9 26.7814H28.524C27.8625 24.4459 27.2415 22.0834 26.634 19.7344C26.0535 22.0969 25.4325 24.4459 24.771 26.7814H22.395C21.8955 25.0669 21.423 23.3524 20.964 21.6244C20.505 19.8829 20.073 18.1279 19.668 16.3594H22.1115C22.3545 17.7094 22.611 19.0594 22.881 20.4094C23.151 21.7594 23.4345 23.0824 23.745 24.3919C24.393 21.8674 25.014 19.3429 25.5945 16.8049H27.7815C28.362 19.2889 28.9695 21.7594 29.6175 24.2299C29.9145 22.9339 30.198 21.6244 30.468 20.3284C30.738 19.0054 30.981 17.6824 31.224 16.3594Z" fill="#EB0000"/>
<path d="M42.173 23.718C42.173 24.4065 41.9975 25.0005 41.66 25.4865C41.3225 25.9725 40.823 26.3505 40.1885 26.607C39.5405 26.8635 38.771 26.9985 37.8665 26.9985C37.2995 26.9985 36.719 26.931 36.1655 26.8095C35.5985 26.688 35.0585 26.4855 34.559 26.2155V24.204C35.558 24.825 36.692 25.149 37.8665 25.149C38.528 25.149 39.0275 25.041 39.3785 24.8115C39.7025 24.6225 39.905 24.258 39.8915 23.88C39.8915 23.583 39.8105 23.34 39.635 23.178C39.446 22.989 39.2165 22.854 38.96 22.773C38.6495 22.665 38.339 22.5705 38.015 22.4895C37.502 22.368 36.989 22.2195 36.503 22.017C36.1115 21.8685 35.7335 21.6525 35.396 21.396C35.099 21.1665 34.8695 20.8695 34.7075 20.532C34.5455 20.154 34.4645 19.7355 34.478 19.3305C34.478 18.669 34.64 18.102 34.9775 17.6295C35.342 17.13 35.828 16.752 36.395 16.536C37.0025 16.2795 37.7315 16.1445 38.582 16.1445C39.1355 16.1445 39.6755 16.212 40.2155 16.3335C40.715 16.4415 41.201 16.617 41.66 16.8465V18.831C41.2145 18.561 40.715 18.3585 40.2155 18.2235C39.689 18.075 39.1355 18.0075 38.5955 18.0075C38.0015 18.0075 37.5425 18.1155 37.2185 18.318C36.908 18.4935 36.719 18.831 36.7325 19.1955C36.719 19.4385 36.8 19.668 36.962 19.8435C37.151 20.019 37.3805 20.154 37.6235 20.235C37.907 20.343 38.2445 20.4375 38.636 20.532C39.1355 20.6535 39.5945 20.802 40.013 20.9505C40.418 21.0855 40.796 21.288 41.147 21.531C41.471 21.7605 41.7275 22.071 41.903 22.422C42.0785 22.7595 42.173 23.1915 42.173 23.718Z" fill="#EB0000"/>
<path d="M9.0315 16.3594V26.7814H6.7635C6.0075 25.5664 5.238 24.3514 4.4685 23.1364C3.7125 21.9484 2.943 20.7604 2.1735 19.5859V26.7814H0V16.3594H2.268C3.051 17.5339 3.8205 18.7084 4.59 19.8964C5.3595 21.0844 6.1155 22.2859 6.8715 23.4874V16.3594H9.0315Z" fill="#EB0000"/>
</g>
<defs>
<clipPath id="clip0_5504_28319">
<rect width="42.174" height="27" fill="white"/>
</clipPath>
</defs>
</svg>
