<svg width="70" height="19" viewBox="0 0 70 19" fill="none" xmlns="http://www.w3.org/2000/svg">
<path d="M6.71199 1.69626H8.23462C9.1619 1.55966 10.1089 1.67976 10.9727 2.04353C12.0564 2.69553 12.8424 3.74519 13.1631 4.96858C13.3902 5.60969 13.3902 5.60969 13.9378 5.38263H14.3652V0.307197H0.0337919V1.20208H0.621474C0.876855 1.20031 1.12939 1.25578 1.36052 1.36441C1.59165 1.47304 1.79551 1.63207 1.95711 1.82983C2.50473 2.71135 2.59822 3.69972 2.59822 8.84194C2.59822 14.3047 2.47801 15.6403 1.95711 16.3215C1.82852 16.4966 1.66203 16.6404 1.47007 16.7422C1.27811 16.844 1.06564 16.9011 0.848532 16.9092C0.0337919 17.0561 0.0337919 17.0428 0.0337919 17.4034C-0.011264 17.524 -0.011264 17.6568 0.0337919 17.7774H9.07608C9.13592 17.6594 9.1671 17.529 9.1671 17.3967C9.1671 17.2644 9.13592 17.134 9.07608 17.0161C8.85707 16.9551 8.63385 16.9105 8.40826 16.8825C8.1642 16.8535 7.92297 16.8043 7.68701 16.7356C7.34911 16.4889 7.08144 16.1583 6.91044 15.7765C6.73944 15.3947 6.67104 14.9748 6.71199 14.5585C6.57843 13.677 6.51165 12.0608 6.51165 10.7252V9.67004H7.0459C7.71153 9.64967 8.37676 9.72159 9.02265 9.88374C9.33208 10.0749 9.59547 10.3321 9.79403 10.6369C9.99258 10.9416 10.1214 11.2865 10.1713 11.6468L10.2915 12.0608H11.1062V6.14395H10.3583L10.2381 6.71827C10.1875 7.08673 10.0512 7.43818 9.84011 7.74439C9.62901 8.05059 9.34903 8.30299 9.02265 8.48132C8.70658 8.57538 8.37358 8.59819 8.04763 8.5481H6.51165V7.10561C6.51165 5.60969 6.59179 2.45758 6.64521 1.96339L6.71199 1.69626ZM69.22 12.2879C68.5886 11.2718 67.6039 10.5249 66.4552 10.1909C65.5745 9.91566 64.7605 9.46089 64.0644 8.8553C63.9077 8.70379 63.7906 8.51625 63.723 8.30905C63.6555 8.10185 63.6397 7.88128 63.6771 7.66658C63.6781 7.24543 63.8462 6.84191 64.1445 6.54464C64.3467 6.33288 64.6026 6.18003 64.8849 6.1024C65.1672 6.02477 65.4653 6.02528 65.7473 6.10388C66.3312 6.27028 66.8592 6.59153 67.2754 7.03358C67.6916 7.47563 67.9804 8.02203 68.1114 8.61488C68.3251 9.21592 68.3518 9.21592 68.7391 9.05564L68.9795 8.96215V5.6364L68.8059 5.55626C67.491 5.09444 66.0962 4.90362 64.7055 4.99529C63.5079 5.02564 62.3648 5.50194 61.5 6.33094C61.1077 6.69809 60.8005 7.14654 60.5998 7.64488C60.3991 8.14322 60.3097 8.67941 60.338 9.21592C60.3455 10.0362 60.6711 10.8215 61.2462 11.4064C61.8818 12.0314 62.6616 12.4902 63.5168 12.742C65.587 13.5567 66.1881 14.0776 66.1881 15.026C66.1969 15.4259 66.0696 15.8169 65.8268 16.1348C65.5841 16.4528 65.2405 16.6788 64.8524 16.7756C64.386 16.8781 63.903 16.8781 63.4366 16.7756C62.826 16.5387 62.2808 16.1593 61.8464 15.6691C61.412 15.1789 61.1009 14.5921 60.939 13.9574L60.7654 13.53H60.5249C60.41 13.5386 60.2973 13.5656 60.191 13.6102H60.0575V17.4034H60.2845C61.1869 17.7036 62.1179 17.9095 63.0627 18.0178H64.3983C64.9775 18.0603 65.5598 18.0061 66.1213 17.8575C66.8341 17.726 67.5 17.4102 68.053 16.9416C68.606 16.473 69.0267 15.8678 69.2734 15.1862C69.4328 14.8055 69.5145 14.3969 69.5138 13.9842C69.5664 13.4027 69.4651 12.8177 69.22 12.2879ZM56.6382 5.38263C55.8379 5.0466 54.9755 4.88359 54.1077 4.90431C53.2399 4.92502 52.3863 5.129 51.6029 5.50284C50.8665 5.86304 50.2138 6.37365 49.687 7.00171C49.1601 7.62977 48.7709 8.36132 48.5442 9.14914C48.2553 10.0085 48.1329 10.9152 48.1836 11.8204C48.1741 12.313 48.2143 12.8052 48.3038 13.2896C48.5195 14.4808 49.0946 15.5773 49.9517 16.4321C50.8089 17.2869 51.9071 17.8588 53.0988 18.0712C53.8748 18.169 54.6601 18.169 55.4361 18.0712C56.2415 17.9293 57.0122 17.6346 57.7067 17.203C58.2813 16.881 58.7675 16.4222 59.1225 15.8674C59.0997 15.7804 59.0596 15.6988 59.0045 15.6277C58.9494 15.5565 58.8805 15.4972 58.802 15.4534C58.6495 15.5086 58.5056 15.585 58.3746 15.6804C57.7102 16.1182 56.9258 16.3377 56.1307 16.3082C55.603 16.3438 55.0739 16.2617 54.5819 16.0676C54.0898 15.8736 53.6471 15.5725 53.2858 15.1862C53.0063 14.9266 52.7756 14.619 52.6046 14.278C52.1895 13.4477 51.9659 12.5349 51.9501 11.6067V11.0858H59.3496V10.8187C59.3659 10.5518 59.3659 10.2842 59.3496 10.0173C59.3469 9.07421 59.0947 8.14863 58.6185 7.3346C58.1422 6.52057 57.459 5.8471 56.6382 5.38263ZM52.9118 10.0039H51.9768V9.21592C52.284 7.1991 53.0454 5.99703 53.9803 5.99703C54.9152 5.99703 55.3159 7.18575 55.4896 9.36284V9.97723H54.6882L52.9118 10.0039ZM33.7053 4.94187C33.2438 4.92397 32.785 5.02032 32.3696 5.22235C31.4669 5.66075 30.7378 6.38988 30.2994 7.2926L30.1258 7.61315V4.94187H30.059C29.8987 4.94187 24.9568 5.93024 24.7966 5.99703C24.6363 6.06381 24.6897 6.07716 24.6897 6.31758C24.6897 6.55799 24.6897 6.59806 24.7966 6.61142L25.3175 6.71827C25.4634 6.72185 25.6065 6.75858 25.7361 6.82569C25.8657 6.8928 25.9783 6.98852 26.0654 7.10561C26.3993 7.54637 26.4661 8.32104 26.4661 11.6201C26.5321 13.1052 26.4695 14.5934 26.2791 16.0678C26.2343 16.2901 26.1216 16.493 25.9565 16.6485C25.7914 16.804 25.5821 16.9044 25.3575 16.9359L24.9034 17.0294H24.7298V17.4034C24.6813 17.528 24.6813 17.6662 24.7298 17.7907H32.196V17.4034C32.2219 17.2756 32.2219 17.1439 32.196 17.0161C31.7465 16.9985 31.2994 16.9404 30.8604 16.8424C30.6213 16.7174 30.4257 16.5228 30.2993 16.2844C30.1729 16.046 30.1217 15.7749 30.1525 15.5068C30.0456 14.7321 29.9922 12.4615 30.0189 10.7252C30.0456 8.98886 30.0189 8.88201 30.1658 8.7618C30.6128 8.41912 31.1658 8.24422 31.7285 8.26761C32.2589 8.27918 32.7797 8.41166 33.2512 8.65495C33.4146 8.74571 33.5899 8.81314 33.7721 8.8553C33.7721 8.8553 35.1077 5.62305 35.1077 5.47613C34.9368 5.27751 34.719 5.12464 34.4742 5.03136C34.2293 4.93808 33.965 4.90732 33.7053 4.94187ZM24.7031 10.5516C24.6565 9.59712 24.3824 8.66763 23.9038 7.84054C23.4252 7.01345 22.7559 6.3127 21.9517 5.79668C20.9959 5.28105 19.9325 4.99674 18.8469 4.96659C17.7613 4.93643 16.6838 5.16127 15.7009 5.62305C14.3111 6.35589 13.2618 7.60164 12.7758 9.09571C12.2738 10.7685 12.2738 12.5518 12.7758 14.2246C13.039 15.1388 13.5308 15.9708 14.2049 16.6421C15.0445 17.4613 16.1271 17.9862 17.2903 18.138C18.0369 18.2004 18.7875 18.2004 19.5341 18.138C19.8089 18.0962 20.081 18.0382 20.3489 17.9644C21.436 17.6602 22.4141 17.0528 23.1687 16.2131C23.9232 15.3734 24.423 14.3362 24.6096 13.2228C24.7429 12.3389 24.7743 11.4426 24.7031 10.5516ZM19.1468 17.2298C17.8112 17.6305 16.8094 16.3349 16.4755 13.6102C16.3529 12.1837 16.3529 10.7493 16.4755 9.32277C16.7427 7.13232 17.4238 6.02374 18.479 6.02374C18.6919 6.01055 18.9048 6.04853 19.1 6.1345C19.2952 6.22048 19.467 6.35195 19.6009 6.51792C20.4958 7.4128 20.9366 9.18921 20.9366 11.8605C21.0477 13.3723 20.8101 14.8894 20.242 16.2948C19.9912 16.7047 19.6031 17.0123 19.1468 17.163V17.2298ZM43.1883 5.209C42.8115 5.1605 42.4299 5.1605 42.053 5.209C41.3296 5.20838 40.6145 5.36325 39.9561 5.66312L39.542 5.83675V2.93841C39.6144 1.96028 39.6144 0.978133 39.542 0C39.3818 0 34.2796 0.975017 34.1995 1.01509C34.1601 1.1137 34.1601 1.22367 34.1995 1.32228C34.1995 1.60277 34.1995 1.58941 34.8005 1.72298C34.9693 1.76082 35.1314 1.82386 35.2813 1.90997C35.5421 2.15513 35.7156 2.47873 35.7755 2.83156C35.9276 3.84801 35.9768 4.8772 35.9225 5.90353V17.6305L36.2831 17.7106C36.8173 17.8308 38.3266 18.0846 38.8208 18.138C39.8076 18.2165 40.7991 18.2165 41.7859 18.138C42.8812 18.0261 43.9253 17.6175 44.8055 16.9561C45.6858 16.2948 46.3689 15.4057 46.7812 14.3848C47.027 13.7296 47.1973 13.0485 47.2887 12.3547C47.3682 11.4149 47.3369 10.469 47.1953 9.53647C47.052 8.49122 46.5906 7.51534 45.8738 6.74121C45.157 5.96707 44.2195 5.43215 43.1883 5.209ZM39.689 17.0027C39.689 16.8291 39.5554 10.979 39.5821 8.64159V6.81177L39.9694 6.71827C40.2308 6.68083 40.4961 6.68083 40.7575 6.71827C41.0465 6.68888 41.3372 6.75453 41.5856 6.90526C42.0844 7.24951 42.4986 7.70241 42.797 8.22989C43.0954 8.75737 43.2703 9.34567 43.3085 9.95052C43.4058 10.9231 43.4058 11.903 43.3085 12.8756C43.2286 14.2892 42.6839 15.6367 41.7592 16.7089C41.4967 16.9582 41.1671 17.1253 40.8109 17.1897C40.5413 17.2366 40.2657 17.2366 39.9962 17.1897C39.7424 17.1897 39.7424 17.1096 39.7424 17.0027H39.689Z" fill="#33629A"/>
</svg>
