<svg width="41" height="40" viewBox="0 0 41 40" fill="none" xmlns="http://www.w3.org/2000/svg">
<g clip-path="url(#clip0_5504_28300)">
<path d="M0.472656 19.2C0.472656 10.149 0.472656 5.62355 3.28443 2.81177C6.09621 0 10.6217 0 19.6727 0H21.2727C30.3237 0 34.8491 0 37.6609 2.81177C40.4727 5.62355 40.4727 10.149 40.4727 19.2V20.8C40.4727 29.851 40.4727 34.3764 37.6609 37.1882C34.8491 40 30.3237 40 21.2727 40H19.6727C10.6217 40 6.09621 40 3.28443 37.1882C0.472656 34.3764 0.472656 29.851 0.472656 20.8V19.2Z" fill="#0077FF"/>
<path d="M21.7559 28.818C12.6392 28.818 7.43932 22.568 7.22266 12.168H11.7893C11.9393 19.8013 15.3059 23.0346 17.9726 23.7013V12.168H22.2727V18.7513C24.9061 18.468 27.6724 15.468 28.6057 12.168H32.9058C32.1892 16.2346 29.1892 19.2346 27.0558 20.468C29.1892 21.468 32.606 24.0846 33.906 28.818H29.1725C28.1558 25.6513 25.6227 23.2013 22.2727 22.868V28.818H21.7559Z" fill="white"/>
</g>
<defs>
<clipPath id="clip0_5504_28300">
<rect width="40" height="40" fill="white" transform="translate(0.472656)"/>
</clipPath>
</defs>
</svg>
