<svg width="383" height="383" viewBox="0 0 383 383" fill="none" xmlns="http://www.w3.org/2000/svg">
<g filter="url(#filter0_d_8507_2367)">
<circle cx="191.5" cy="191.5" r="160.5" fill="white"/>
</g>
<g filter="url(#filter1_d_8507_2367)">
<circle cx="191.501" cy="191.501" r="126.455" fill="white"/>
</g>
<g filter="url(#filter2_d_8507_2367)">
<circle cx="191.5" cy="191.5" r="75.5" fill="white"/>
</g>
<mask id="path-4-inside-1_8507_2367" fill="white">
<path d="M191.501 65.0469C217.429 65.0469 242.73 73.0167 263.977 87.8767C285.223 102.737 301.389 123.769 310.283 148.123C319.177 172.477 320.37 198.977 313.7 224.032C307.03 249.087 292.82 271.486 272.994 288.195L240.079 249.14C251.897 239.18 260.368 225.828 264.344 210.893C268.32 195.958 267.609 180.161 262.307 165.644C257.005 151.126 247.369 138.589 234.704 129.731C222.039 120.873 206.957 116.122 191.501 116.122L191.501 65.0469Z"/>
</mask>
<path d="M191.501 65.0469C217.429 65.0469 242.73 73.0167 263.977 87.8767C285.223 102.737 301.389 123.769 310.283 148.123C319.177 172.477 320.37 198.977 313.7 224.032C307.03 249.087 292.82 271.486 272.994 288.195L240.079 249.14C251.897 239.18 260.368 225.828 264.344 210.893C268.32 195.958 267.609 180.161 262.307 165.644C257.005 151.126 247.369 138.589 234.704 129.731C222.039 120.873 206.957 116.122 191.501 116.122L191.501 65.0469Z" stroke="url(#paint0_angular_8507_2367)" stroke-width="102.239" mask="url(#path-4-inside-1_8507_2367)"/>
<path d="M165.219 211.453H158.869V204.477H141.548V199.377L158.869 177.053H165.219V199.377H170.031V204.477H165.219V211.453ZM158.869 185.184L147.706 199.377H158.869V185.184ZM198.08 211.453H173.975V206.257L186.966 194.71C188.505 193.267 189.66 191.952 190.43 190.765C191.2 189.578 191.585 188.343 191.585 187.06C191.585 186.034 191.344 185.12 190.863 184.318C190.382 183.484 189.708 182.842 188.842 182.393C187.976 181.912 186.982 181.672 185.859 181.672C184.32 181.672 182.844 182.121 181.433 183.019C180.022 183.885 178.739 185.2 177.584 186.964L173.398 182.826C175.034 180.709 176.91 179.09 179.027 177.967C181.144 176.844 183.518 176.283 186.148 176.283C188.554 176.283 190.622 176.748 192.354 177.678C194.119 178.608 195.482 179.875 196.444 181.479C197.406 183.083 197.887 184.927 197.887 187.012C197.887 188.455 197.583 189.867 196.973 191.246C196.396 192.625 195.498 194.02 194.279 195.432C193.06 196.843 191.504 198.351 189.612 199.954C188.938 200.596 188.169 201.301 187.303 202.071C186.437 202.809 185.555 203.547 184.656 204.284C183.79 204.99 183.005 205.648 182.299 206.257H198.08V211.453ZM211.005 211.453H204.655L228.663 177.053H235.062L211.005 211.453ZM230.01 211.982C228.502 211.982 227.139 211.63 225.92 210.924C224.701 210.218 223.739 209.256 223.034 208.037C222.328 206.786 221.975 205.407 221.975 203.899C221.975 202.392 222.328 201.029 223.034 199.81C223.739 198.591 224.701 197.629 225.92 196.923C227.139 196.218 228.502 195.865 230.01 195.865C231.582 195.865 232.961 196.218 234.148 196.923C235.366 197.629 236.329 198.591 237.034 199.81C237.74 201.029 238.093 202.392 238.093 203.899C238.093 205.407 237.74 206.786 237.034 208.037C236.329 209.256 235.366 210.218 234.148 210.924C232.961 211.63 231.582 211.982 230.01 211.982ZM230.01 207.46C230.94 207.46 231.71 207.123 232.319 206.449C232.961 205.776 233.282 204.926 233.282 203.899C233.282 202.905 232.961 202.071 232.319 201.398C231.71 200.724 230.94 200.387 230.01 200.387C229.08 200.387 228.294 200.724 227.652 201.398C227.043 202.071 226.738 202.905 226.738 203.899C226.738 204.926 227.043 205.776 227.652 206.449C228.294 207.123 229.08 207.46 230.01 207.46ZM209.658 192.641C208.151 192.641 206.788 192.288 205.569 191.583C204.35 190.877 203.388 189.915 202.682 188.696C201.976 187.445 201.624 186.066 201.624 184.558C201.624 183.051 201.976 181.688 202.682 180.469C203.388 179.25 204.35 178.288 205.569 177.582C206.788 176.876 208.151 176.524 209.658 176.524C211.23 176.524 212.609 176.876 213.796 177.582C215.015 178.288 215.977 179.25 216.683 180.469C217.388 181.688 217.741 183.051 217.741 184.558C217.741 186.066 217.388 187.445 216.683 188.696C215.977 189.915 215.015 190.877 213.796 191.583C212.609 192.288 211.23 192.641 209.658 192.641ZM209.658 188.119C210.588 188.119 211.358 187.782 211.968 187.108C212.609 186.435 212.93 185.585 212.93 184.558C212.93 183.564 212.609 182.73 211.968 182.056C211.358 181.383 210.588 181.046 209.658 181.046C208.728 181.046 207.942 181.383 207.301 182.056C206.691 182.73 206.387 183.564 206.387 184.558C206.387 185.585 206.691 186.435 207.301 187.108C207.942 187.782 208.728 188.119 209.658 188.119Z" fill="url(#paint1_linear_8507_2367)"/>
<defs>
<filter id="filter0_d_8507_2367" x="0.132656" y="0.132656" width="382.735" height="382.735" filterUnits="userSpaceOnUse" color-interpolation-filters="sRGB">
<feFlood flood-opacity="0" result="BackgroundImageFix"/>
<feColorMatrix in="SourceAlpha" type="matrix" values="0 0 0 0 0 0 0 0 0 0 0 0 0 0 0 0 0 0 127 0" result="hardAlpha"/>
<feOffset/>
<feGaussianBlur stdDeviation="15.4337"/>
<feColorMatrix type="matrix" values="0 0 0 0 0.62542 0 0 0 0 0.708463 0 0 0 0 0.791507 0 0 0 0.2 0"/>
<feBlend mode="multiply" in2="BackgroundImageFix" result="effect1_dropShadow_8507_2367"/>
<feBlend mode="normal" in="SourceGraphic" in2="effect1_dropShadow_8507_2367" result="shape"/>
</filter>
<filter id="filter1_d_8507_2367" x="34.1795" y="34.1795" width="314.643" height="314.643" filterUnits="userSpaceOnUse" color-interpolation-filters="sRGB">
<feFlood flood-opacity="0" result="BackgroundImageFix"/>
<feColorMatrix in="SourceAlpha" type="matrix" values="0 0 0 0 0 0 0 0 0 0 0 0 0 0 0 0 0 0 127 0" result="hardAlpha"/>
<feOffset/>
<feGaussianBlur stdDeviation="15.4337"/>
<feColorMatrix type="matrix" values="0 0 0 0 0.62542 0 0 0 0 0.708463 0 0 0 0 0.791507 0 0 0 0.3 0"/>
<feBlend mode="multiply" in2="BackgroundImageFix" result="effect1_dropShadow_8507_2367"/>
<feBlend mode="normal" in="SourceGraphic" in2="effect1_dropShadow_8507_2367" result="shape"/>
</filter>
<filter id="filter2_d_8507_2367" x="85.1327" y="85.1327" width="212.735" height="212.735" filterUnits="userSpaceOnUse" color-interpolation-filters="sRGB">
<feFlood flood-opacity="0" result="BackgroundImageFix"/>
<feColorMatrix in="SourceAlpha" type="matrix" values="0 0 0 0 0 0 0 0 0 0 0 0 0 0 0 0 0 0 127 0" result="hardAlpha"/>
<feOffset/>
<feGaussianBlur stdDeviation="15.4337"/>
<feColorMatrix type="matrix" values="0 0 0 0 0.62542 0 0 0 0 0.708463 0 0 0 0 0.791507 0 0 0 0.3 0"/>
<feBlend mode="multiply" in2="BackgroundImageFix" result="effect1_dropShadow_8507_2367"/>
<feBlend mode="normal" in="SourceGraphic" in2="effect1_dropShadow_8507_2367" result="shape"/>
</filter>
<radialGradient id="paint0_angular_8507_2367" cx="0" cy="0" r="1" gradientUnits="userSpaceOnUse" gradientTransform="translate(191.501 191.501) rotate(-90) scale(126.455 134.406)">
<stop stop-color="#39C7EC"/>
<stop offset="0.755208" stop-color="#0050EC"/>
</radialGradient>
<linearGradient id="paint1_linear_8507_2367" x1="144.143" y1="159.453" x2="240.771" y2="218.209" gradientUnits="userSpaceOnUse">
<stop stop-color="#39C7EC"/>
<stop offset="0.0001" stop-color="#39C7EC"/>
<stop offset="1" stop-color="#0050EC"/>
</linearGradient>
</defs>
</svg>
