<svg width="383" height="383" viewBox="0 0 383 383" fill="none" xmlns="http://www.w3.org/2000/svg">
<g filter="url(#filter0_d_8507_2367)">
<circle cx="191.5" cy="191.5" r="160.5" fill="white"/>
</g>
<g filter="url(#filter1_d_8507_2367)">
<circle cx="191.501" cy="191.501" r="126.455" fill="white"/>
</g>
<g filter="url(#filter2_d_8507_2367)">
<circle cx="191.5" cy="191.5" r="75.5" fill="white"/>
</g>
<mask id="path-4-inside-1_8507_2367" fill="white">
<path d="M191.501 65.0469C218.93 65.0469 245.616 73.9653 267.533 90.4573C289.451 106.949 305.411 130.12 313.009 156.476C320.606 182.832 319.428 210.944 309.651 236.571C299.875 262.199 282.032 283.953 258.811 298.554C235.591 313.154 208.253 319.808 180.92 317.512C153.587 315.217 127.741 304.097 107.281 285.829C86.8205 267.561 72.8547 243.135 67.4895 216.236C62.1244 189.337 65.6509 161.422 77.5372 136.703L123.567 158.836C116.482 173.571 114.38 190.211 117.578 206.246C120.776 222.28 129.101 236.84 141.298 247.73C153.494 258.619 168.901 265.248 185.194 266.616C201.487 267.985 217.783 264.018 231.625 255.315C245.466 246.612 256.103 233.644 261.931 218.368C267.758 203.091 268.46 186.334 263.932 170.623C259.403 154.912 249.889 141.1 236.824 131.269C223.759 121.438 207.852 116.122 191.501 116.122V65.0469Z"/>
</mask>
<path d="M191.501 65.0469C218.93 65.0469 245.616 73.9653 267.533 90.4573C289.451 106.949 305.411 130.12 313.009 156.476C320.606 182.832 319.428 210.944 309.651 236.571C299.875 262.199 282.032 283.953 258.811 298.554C235.591 313.154 208.253 319.808 180.92 317.512C153.587 315.217 127.741 304.097 107.281 285.829C86.8205 267.561 72.8547 243.135 67.4895 216.236C62.1244 189.337 65.6509 161.422 77.5372 136.703L123.567 158.836C116.482 173.571 114.38 190.211 117.578 206.246C120.776 222.28 129.101 236.84 141.298 247.73C153.494 258.619 168.901 265.248 185.194 266.616C201.487 267.985 217.783 264.018 231.625 255.315C245.466 246.612 256.103 233.644 261.931 218.368C267.758 203.091 268.46 186.334 263.932 170.623C259.403 154.912 249.889 141.1 236.824 131.269C223.759 121.438 207.852 116.122 191.501 116.122V65.0469Z" stroke="url(#paint0_angular_8507_2367)" stroke-width="102.239" mask="url(#path-4-inside-1_8507_2367)"/>
<path d="M156.276 212.223C153.614 212.223 151.272 211.774 149.251 210.876C147.263 209.978 145.691 208.759 144.536 207.219C143.382 205.648 142.804 203.867 142.804 201.879C142.804 199.922 143.382 198.206 144.536 196.731C145.723 195.223 147.327 194.052 149.348 193.219C151.368 192.385 153.678 191.968 156.276 191.968C158.874 191.968 161.183 192.385 163.204 193.219C165.225 194.052 166.812 195.223 167.967 196.731C169.122 198.206 169.699 199.922 169.699 201.879C169.699 203.867 169.122 205.648 167.967 207.219C166.845 208.759 165.273 209.978 163.252 210.876C161.263 211.774 158.938 212.223 156.276 212.223ZM156.276 194.421C153.934 194.421 151.849 194.052 150.021 193.315C148.225 192.577 146.798 191.551 145.739 190.236C144.713 188.92 144.2 187.413 144.2 185.713C144.2 183.917 144.697 182.313 145.691 180.902C146.717 179.49 148.145 178.368 149.973 177.534C151.801 176.7 153.902 176.283 156.276 176.283C158.649 176.283 160.734 176.7 162.53 177.534C164.359 178.368 165.786 179.49 166.812 180.902C167.839 182.313 168.352 183.917 168.352 185.713C168.352 187.413 167.823 188.92 166.764 190.236C165.706 191.551 164.279 192.577 162.482 193.315C160.686 194.052 158.617 194.421 156.276 194.421ZM156.276 206.931C157.591 206.931 158.762 206.706 159.788 206.257C160.814 205.808 161.616 205.182 162.194 204.381C162.803 203.547 163.108 202.616 163.108 201.59C163.108 200.532 162.803 199.601 162.194 198.8C161.616 197.998 160.814 197.372 159.788 196.923C158.762 196.474 157.591 196.25 156.276 196.25C154.961 196.25 153.774 196.474 152.715 196.923C151.689 197.372 150.871 197.998 150.262 198.8C149.684 199.601 149.396 200.532 149.396 201.59C149.396 202.616 149.684 203.547 150.262 204.381C150.871 205.182 151.689 205.808 152.715 206.257C153.774 206.706 154.961 206.931 156.276 206.931ZM156.276 191.053C157.366 191.053 158.329 190.845 159.163 190.428C160.029 190.011 160.702 189.45 161.183 188.744C161.696 188.006 161.953 187.188 161.953 186.29C161.953 185.36 161.696 184.542 161.183 183.837C160.702 183.099 160.029 182.522 159.163 182.105C158.329 181.656 157.366 181.431 156.276 181.431C155.217 181.431 154.239 181.656 153.341 182.105C152.475 182.522 151.785 183.099 151.272 183.837C150.791 184.542 150.55 185.36 150.55 186.29C150.55 187.188 150.791 188.006 151.272 188.744C151.785 189.45 152.475 190.011 153.341 190.428C154.239 190.845 155.217 191.053 156.276 191.053ZM198.016 211.453H173.912V206.257L186.902 194.71C188.442 193.267 189.596 191.952 190.366 190.765C191.136 189.578 191.521 188.343 191.521 187.06C191.521 186.034 191.28 185.12 190.799 184.318C190.318 183.484 189.644 182.842 188.778 182.393C187.912 181.912 186.918 181.672 185.795 181.672C184.256 181.672 182.78 182.121 181.369 183.019C179.958 183.885 178.675 185.2 177.52 186.964L173.334 182.826C174.97 180.709 176.846 179.09 178.963 177.967C181.08 176.844 183.454 176.283 186.084 176.283C188.49 176.283 190.559 176.748 192.291 177.678C194.055 178.608 195.418 179.875 196.38 181.479C197.342 183.083 197.824 184.927 197.824 187.012C197.824 188.455 197.519 189.867 196.909 191.246C196.332 192.625 195.434 194.02 194.215 195.432C192.996 196.843 191.441 198.351 189.548 199.954C188.875 200.596 188.105 201.301 187.239 202.071C186.373 202.809 185.491 203.547 184.593 204.284C183.727 204.99 182.941 205.648 182.235 206.257H198.016V211.453ZM210.942 211.453H204.591L228.599 177.053H234.998L210.942 211.453ZM229.946 211.982C228.439 211.982 227.075 211.63 225.857 210.924C224.638 210.218 223.675 209.256 222.97 208.037C222.264 206.786 221.911 205.407 221.911 203.899C221.911 202.392 222.264 201.029 222.97 199.81C223.675 198.591 224.638 197.629 225.857 196.923C227.075 196.218 228.439 195.865 229.946 195.865C231.518 195.865 232.897 196.218 234.084 196.923C235.303 197.629 236.265 198.591 236.97 199.81C237.676 201.029 238.029 202.392 238.029 203.899C238.029 205.407 237.676 206.786 236.97 208.037C236.265 209.256 235.303 210.218 234.084 210.924C232.897 211.63 231.518 211.982 229.946 211.982ZM229.946 207.46C230.876 207.46 231.646 207.123 232.255 206.449C232.897 205.776 233.218 204.926 233.218 203.899C233.218 202.905 232.897 202.071 232.255 201.398C231.646 200.724 230.876 200.387 229.946 200.387C229.016 200.387 228.23 200.724 227.589 201.398C226.979 202.071 226.674 202.905 226.674 203.899C226.674 204.926 226.979 205.776 227.589 206.449C228.23 207.123 229.016 207.46 229.946 207.46ZM209.595 192.641C208.087 192.641 206.724 192.288 205.505 191.583C204.286 190.877 203.324 189.915 202.618 188.696C201.913 187.445 201.56 186.066 201.56 184.558C201.56 183.051 201.913 181.688 202.618 180.469C203.324 179.25 204.286 178.288 205.505 177.582C206.724 176.876 208.087 176.524 209.595 176.524C211.166 176.524 212.545 176.876 213.732 177.582C214.951 178.288 215.913 179.25 216.619 180.469C217.325 181.688 217.677 183.051 217.677 184.558C217.677 186.066 217.325 187.445 216.619 188.696C215.913 189.915 214.951 190.877 213.732 191.583C212.545 192.288 211.166 192.641 209.595 192.641ZM209.595 188.119C210.525 188.119 211.294 187.782 211.904 187.108C212.545 186.435 212.866 185.585 212.866 184.558C212.866 183.564 212.545 182.73 211.904 182.056C211.294 181.383 210.525 181.046 209.595 181.046C208.664 181.046 207.879 181.383 207.237 182.056C206.628 182.73 206.323 183.564 206.323 184.558C206.323 185.585 206.628 186.435 207.237 187.108C207.879 187.782 208.664 188.119 209.595 188.119Z" fill="url(#paint1_linear_8507_2367)"/>
<defs>
<filter id="filter0_d_8507_2367" x="0.132656" y="0.132656" width="382.735" height="382.735" filterUnits="userSpaceOnUse" color-interpolation-filters="sRGB">
<feFlood flood-opacity="0" result="BackgroundImageFix"/>
<feColorMatrix in="SourceAlpha" type="matrix" values="0 0 0 0 0 0 0 0 0 0 0 0 0 0 0 0 0 0 127 0" result="hardAlpha"/>
<feOffset/>
<feGaussianBlur stdDeviation="15.4337"/>
<feColorMatrix type="matrix" values="0 0 0 0 0.62542 0 0 0 0 0.708463 0 0 0 0 0.791507 0 0 0 0.2 0"/>
<feBlend mode="multiply" in2="BackgroundImageFix" result="effect1_dropShadow_8507_2367"/>
<feBlend mode="normal" in="SourceGraphic" in2="effect1_dropShadow_8507_2367" result="shape"/>
</filter>
<filter id="filter1_d_8507_2367" x="34.1795" y="34.1795" width="314.643" height="314.643" filterUnits="userSpaceOnUse" color-interpolation-filters="sRGB">
<feFlood flood-opacity="0" result="BackgroundImageFix"/>
<feColorMatrix in="SourceAlpha" type="matrix" values="0 0 0 0 0 0 0 0 0 0 0 0 0 0 0 0 0 0 127 0" result="hardAlpha"/>
<feOffset/>
<feGaussianBlur stdDeviation="15.4337"/>
<feColorMatrix type="matrix" values="0 0 0 0 0.62542 0 0 0 0 0.708463 0 0 0 0 0.791507 0 0 0 0.3 0"/>
<feBlend mode="multiply" in2="BackgroundImageFix" result="effect1_dropShadow_8507_2367"/>
<feBlend mode="normal" in="SourceGraphic" in2="effect1_dropShadow_8507_2367" result="shape"/>
</filter>
<filter id="filter2_d_8507_2367" x="85.1327" y="85.1327" width="212.735" height="212.735" filterUnits="userSpaceOnUse" color-interpolation-filters="sRGB">
<feFlood flood-opacity="0" result="BackgroundImageFix"/>
<feColorMatrix in="SourceAlpha" type="matrix" values="0 0 0 0 0 0 0 0 0 0 0 0 0 0 0 0 0 0 127 0" result="hardAlpha"/>
<feOffset/>
<feGaussianBlur stdDeviation="15.4337"/>
<feColorMatrix type="matrix" values="0 0 0 0 0.62542 0 0 0 0 0.708463 0 0 0 0 0.791507 0 0 0 0.3 0"/>
<feBlend mode="multiply" in2="BackgroundImageFix" result="effect1_dropShadow_8507_2367"/>
<feBlend mode="normal" in="SourceGraphic" in2="effect1_dropShadow_8507_2367" result="shape"/>
</filter>
<radialGradient id="paint0_angular_8507_2367" cx="0" cy="0" r="1" gradientUnits="userSpaceOnUse" gradientTransform="translate(191.501 191.501) rotate(-90) scale(126.455 134.406)">
<stop stop-color="#39C7EC"/>
<stop offset="0.755208" stop-color="#0050EC"/>
</radialGradient>
<linearGradient id="paint1_linear_8507_2367" x1="145.096" y1="159.453" x2="241.274" y2="217.351" gradientUnits="userSpaceOnUse">
<stop stop-color="#39C7EC"/>
<stop offset="0.0001" stop-color="#39C7EC"/>
<stop offset="1" stop-color="#0050EC"/>
</linearGradient>
</defs>
</svg>
