<svg width="14" height="14" viewBox="0 0 14 14" fill="none" xmlns="http://www.w3.org/2000/svg">
<circle cx="7" cy="7" r="7" fill="#FAFBFC"/>
<mask id="path-2-inside-1_8538_2454" fill="white">
<path d="M7 0C8.38447 1.65096e-08 9.73785 0.410543 10.889 1.17971C12.0401 1.94888 12.9373 3.04213 13.4672 4.32122C13.997 5.6003 14.1356 7.00777 13.8655 8.36563C13.5954 9.7235 12.9287 10.9708 11.9497 11.9497L10.9429 10.9429C11.7228 10.1631 12.2538 9.16952 12.469 8.08785C12.6842 7.00619 12.5737 5.88501 12.1517 4.8661C11.7296 3.8472 11.0149 2.97632 10.0979 2.36361C9.18095 1.75089 8.10286 1.42386 7 1.42386L7 0Z"/>
</mask>
<path d="M7 0C8.38447 1.65096e-08 9.73785 0.410543 10.889 1.17971C12.0401 1.94888 12.9373 3.04213 13.4672 4.32122C13.997 5.6003 14.1356 7.00777 13.8655 8.36563C13.5954 9.7235 12.9287 10.9708 11.9497 11.9497L10.9429 10.9429C11.7228 10.1631 12.2538 9.16952 12.469 8.08785C12.6842 7.00619 12.5737 5.88501 12.1517 4.8661C11.7296 3.8472 11.0149 2.97632 10.0979 2.36361C9.18095 1.75089 8.10286 1.42386 7 1.42386L7 0Z" stroke="#EFF1F7" stroke-width="10" mask="url(#path-2-inside-1_8538_2454)"/>
<path d="M7 0C8.38447 1.65096e-08 9.73785 0.410543 10.889 1.17971C12.0401 1.94888 12.9373 3.04213 13.4672 4.32122C13.997 5.6003 14.1356 7.00777 13.8655 8.36563C13.5954 9.7235 12.9287 10.9708 11.9497 11.9497L10.9429 10.9429C11.7228 10.1631 12.2538 9.16952 12.469 8.08785C12.6842 7.00619 12.5737 5.88501 12.1517 4.8661C11.7296 3.8472 11.0149 2.97632 10.0979 2.36361C9.18095 1.75089 8.10286 1.42386 7 1.42386L7 0Z" stroke="url(#paint0_angular_8538_2454)" stroke-width="10" mask="url(#path-2-inside-1_8538_2454)"/>
<defs>
<radialGradient id="paint0_angular_8538_2454" cx="0" cy="0" r="1" gradientUnits="userSpaceOnUse" gradientTransform="translate(7 7) rotate(-90) scale(7)">
<stop stop-color="#0056FE"/>
<stop offset="1" stop-color="#19BFEA"/>
</radialGradient>
</defs>
</svg>
