<svg width="150" height="64" viewBox="0 0 150 64" fill="none" xmlns="http://www.w3.org/2000/svg">
<path d="M35.1073 1.01312V62.0396C35.1096 62.1789 35.0793 62.3164 35.0192 62.4386C34.9592 62.5608 34.8715 62.6635 34.7649 62.7365C34.6582 62.8096 34.5363 62.8504 34.4111 62.8549C34.286 62.8595 34.1619 62.8277 34.0512 62.7627L23.7125 57.0032C23.592 56.9374 23.4904 56.8356 23.4193 56.7091C23.3481 56.5825 23.3101 56.4364 23.3097 56.2872V6.76907C23.3101 6.61985 23.3481 6.47373 23.4193 6.34722C23.4904 6.22071 23.592 6.11884 23.7125 6.0531L34.048 0.300678C34.1583 0.235922 34.2817 0.204121 34.4064 0.208387C34.531 0.212653 34.6525 0.252842 34.7589 0.325016C34.8654 0.397191 34.9532 0.498877 35.0137 0.620117C35.0742 0.741356 35.1053 0.877993 35.1041 1.01664L35.1073 1.01312ZM116.555 22.8872V62.0467C116.554 62.1835 116.523 62.3179 116.462 62.4372C116.402 62.5565 116.315 62.6567 116.211 62.7284C116.106 62.8001 115.986 62.8409 115.864 62.8468C115.741 62.8528 115.618 62.8239 115.508 62.7627L105.157 57.0032C105.037 56.9369 104.936 56.8349 104.866 56.7084C104.795 56.5819 104.757 56.4361 104.757 56.2872V22.8872C104.757 22.6748 104.833 22.4712 104.968 22.321C105.103 22.1709 105.286 22.0865 105.477 22.0865H115.835C116.026 22.0865 116.209 22.1709 116.344 22.321C116.479 22.4712 116.555 22.6748 116.555 22.8872ZM102.388 60.6712L102.185 60.8405C100.993 61.8119 99.6424 62.5162 98.2084 62.9143C96.466 63.4151 94.6437 63.4655 92.8811 63.0618C91.1185 62.6581 89.4624 61.8109 88.0398 60.5852C86.6171 59.3596 85.4657 57.7879 84.6738 55.9908C83.8818 54.1936 83.4704 52.2187 83.471 50.2174V22.993C83.471 22.7812 83.5464 22.5781 83.6807 22.4281C83.815 22.278 83.9973 22.1933 84.1877 22.1923L90.8286 22.3123H94.5264C94.5676 22.3078 94.609 22.3078 94.6501 22.3123C94.8127 22.3488 94.959 22.4467 95.0641 22.5894C95.1693 22.7321 95.2269 22.9108 95.2273 23.0952V32.558C95.2235 32.6085 95.2235 32.6592 95.2273 32.7097V54.037C95.229 55.65 95.8059 57.1964 96.8315 58.337C97.857 59.4775 99.2476 60.1191 100.698 60.121H102.128C102.174 60.1106 102.222 60.1129 102.268 60.1275C102.313 60.1422 102.354 60.1689 102.388 60.2054C102.422 60.2418 102.448 60.2868 102.463 60.3366C102.478 60.3864 102.482 60.4395 102.474 60.4913C102.463 60.5588 102.433 60.6241 102.388 60.6712ZM20.7123 27.0313C20.0669 26.7436 19.3779 26.5963 18.6826 26.5975H17.8581C17.1369 26.5975 16.4228 26.7557 15.7567 27.063C15.0907 27.3704 14.4856 27.8208 13.9763 28.3886C13.4669 28.9563 13.0633 29.6302 12.7885 30.3717C12.5137 31.1132 12.3731 31.9077 12.3747 32.7097V54.037C12.3789 55.6513 12.9585 57.1978 13.9864 58.3376C15.0142 59.4774 16.4065 60.1175 17.8581 60.1175H19.2884C19.3346 60.1112 19.3814 60.1176 19.4249 60.1361C19.4683 60.1545 19.5071 60.1846 19.5377 60.2235C19.5684 60.2625 19.59 60.3092 19.6007 60.3595C19.6114 60.4099 19.6109 60.4624 19.5992 60.5125C19.5844 60.5787 19.5511 60.638 19.504 60.6818L19.3042 60.8511C17.5445 62.2705 15.4662 63.1214 13.2989 63.3095C11.1317 63.4977 8.95981 63.016 7.02332 61.9175C5.08683 60.8189 3.4611 59.1465 2.32575 57.0848C1.1904 55.0231 0.589643 52.6526 0.589844 50.235V35.6547C0.589844 28.3962 5.93364 22.2699 12.4572 22.3087C14.0703 22.3203 15.664 22.7008 17.1392 23.4265C18.6144 24.1521 19.9397 25.2075 21.0326 26.527C21.0714 26.5811 21.0934 26.6477 21.0953 26.7169C21.0972 26.7861 21.079 26.8541 21.0434 26.9108C21.0077 26.9675 20.9565 27.0099 20.8974 27.0316C20.8383 27.0533 20.7713 27.0532 20.7123 27.0313ZM149.804 49.6566C149.804 53.254 148.925 56.2308 147.165 58.5868C146.902 58.9254 146.658 59.2392 146.35 59.5567C144.266 61.8139 141.593 63.0272 138.346 63.26C138.336 63.2655 138.326 63.2684 138.315 63.2684C138.305 63.2684 138.295 63.2655 138.285 63.26L137.981 63.2846H136.725C134.635 63.2052 132.554 62.9208 130.509 62.4347L130.217 62.3641C128.707 61.93 127.228 61.3748 125.79 60.7029C125.269 60.4489 124.825 60.0355 124.507 59.511C124.19 58.9864 124.013 58.3723 123.998 57.7403L123.713 50.1257C123.711 50.0681 123.719 50.0108 123.737 49.9569C123.756 49.9031 123.783 49.8539 123.819 49.8124C123.855 49.7709 123.898 49.7379 123.946 49.7154C123.993 49.6928 124.045 49.6812 124.096 49.6813C124.388 49.6813 124.655 49.8647 124.788 50.1503C126.225 53.214 128.105 55.9939 130.354 58.3787C132.256 60.389 134.242 61.5811 136.316 61.9585C136.798 62.0467 137.286 62.0925 137.775 62.089C138.019 62.089 138.282 62.089 138.504 62.0537H138.625C138.712 62.0527 138.799 62.0433 138.885 62.0255C139.338 61.9832 139.788 61.8739 140.217 61.7081C140.401 61.6481 140.578 61.5811 140.753 61.4965C140.889 61.4365 141.025 61.373 141.152 61.299C141.957 60.8486 142.667 60.214 143.236 59.4368C143.35 59.2957 143.458 59.1475 143.553 58.9924C143.651 58.8301 143.753 58.6749 143.838 58.5198C144.156 57.6945 144.308 56.8057 144.292 55.9098C144.333 54.9772 144.159 54.0484 143.786 53.2118C143.413 52.3753 142.853 51.6589 142.161 51.1308C140.288 49.8045 138.232 48.8287 136.075 48.2423C134.144 47.6834 132.252 46.969 130.414 46.105C129.473 45.6209 128.582 45.0249 127.756 44.3274C127.518 44.1369 127.281 43.9147 127.043 43.7031C124.896 41.7245 123.821 38.6596 123.821 34.5013C123.814 33.1611 124.004 31.8279 124.385 30.5547C124.436 30.403 124.487 30.2514 124.547 30.0962C124.724 29.5813 124.931 29.0805 125.165 28.5902C125.165 28.562 125.191 28.5302 125.206 28.495C125.723 27.5004 126.358 26.5834 127.087 25.7722C128.644 24.0489 130.634 22.8927 132.796 22.4569C133.848 22.2241 134.92 22.1112 135.992 22.1183C136.595 22.1183 137.226 22.1536 137.851 22.217C139.279 22.3726 140.691 22.6748 142.069 23.1199C143.851 23.7195 145.589 24.4813 147.257 25.3948C147.265 25.3995 147.272 25.4066 147.276 25.4154C147.281 25.4241 147.283 25.4341 147.282 25.4442L147.432 30.1033L147.546 33.8806C147.547 33.9358 147.539 33.9908 147.521 34.0423C147.503 34.0938 147.476 34.1408 147.441 34.1803C147.407 34.2199 147.365 34.2512 147.319 34.2724C147.274 34.2937 147.224 34.3043 147.175 34.3038C147.042 34.3035 146.912 34.2638 146.797 34.1888C146.683 34.1138 146.589 34.0061 146.525 33.8771C145.605 32.036 144.558 30.2796 143.394 28.6219C142.868 27.8738 142.306 27.158 141.71 26.4776L141.571 26.3259C139.773 24.3226 137.819 23.3245 135.71 23.3245C133.601 23.3245 131.962 23.8641 130.794 24.9469C130.232 25.4786 129.786 26.1454 129.489 26.8969C129.193 27.6483 129.053 28.4649 129.082 29.285C129.056 30.1254 129.236 30.9578 129.602 31.6938C129.967 32.4297 130.506 33.0416 131.159 33.4644C132.754 34.5289 134.481 35.3285 136.284 35.8381L137.299 36.1449C138.767 36.5893 139.757 36.9067 140.283 37.0972C140.918 37.3229 141.71 37.6333 142.652 38.0353C143.461 38.3598 144.238 38.783 144.967 39.2909C145.637 39.7882 146.274 40.3419 146.87 40.9486C147.504 41.5728 148.037 42.3206 148.434 43.1564C149.388 45.1562 149.861 47.3958 149.804 49.6601V49.6566ZM77.5817 43.2164V42.7579V42.1513V41.7139C77.5817 41.4036 77.55 41.0861 77.5214 40.7758L77.4897 40.4301L77.4612 40.1656C77.4601 39.9939 77.4388 39.8232 77.3977 39.6577C77.3977 39.4884 77.3533 39.3191 77.3248 39.1569C77.2931 38.9947 77.2899 38.9382 77.2677 38.8254L77.1884 38.3739C77.1111 37.9685 77.0212 37.5662 76.9189 37.1677L76.7983 36.7021L76.6556 36.2225C76.6081 36.0673 76.5605 35.9121 76.5066 35.7569C76.4053 35.4438 76.2975 35.1333 76.1831 34.8258L76.0467 34.4661C75.9745 34.2732 75.893 34.0848 75.8025 33.9018C75.7169 33.7325 75.6059 33.4362 75.4917 33.2175C75.2016 32.584 74.8775 31.9704 74.5213 31.38C74.3801 31.1425 74.2341 30.9085 74.0836 30.6782L73.8648 30.3466L73.7284 30.1491C73.2901 29.5149 72.8177 28.9107 72.314 28.3398L72.0381 28.033C71.715 27.6764 71.3786 27.3351 71.0296 27.0101L70.9535 26.9361C70.7519 26.7461 70.549 26.558 70.3446 26.3718L69.9957 26.0755C69.6414 25.7826 69.2764 25.5061 68.9016 25.2467C68.7779 25.162 68.651 25.0703 68.5242 24.9927L68.1436 24.7458C68.0158 24.6628 67.8857 24.584 67.7535 24.5095C67.6235 24.439 67.4967 24.3579 67.3635 24.2838L66.9639 24.0652C66.831 23.9912 66.6955 23.923 66.5579 23.8606L66.152 23.6631C65.8758 23.5349 65.5967 23.4149 65.3147 23.3033L64.893 23.1376L64.4616 22.9859L64.0303 22.8448C63.7406 22.754 63.4487 22.6716 63.155 22.5979L62.7998 22.5133L62.2607 22.4004C61.9579 22.3384 61.6532 22.2879 61.3473 22.2488L60.8907 22.1853L60.2247 22.1218H58.1886C55.29 22.2608 52.4608 23.1522 49.9274 24.7248C47.394 26.2974 45.2266 28.5074 43.5987 31.1782C41.9707 33.849 40.9273 36.9064 40.552 40.1059C40.1766 43.3054 40.4797 46.5581 41.4371 49.604C42.3944 52.6499 43.9793 55.4044 46.0652 57.6472C48.151 59.89 50.6798 61.5588 53.4494 62.5202C56.2189 63.4816 59.1523 63.7089 62.015 63.1839C64.8777 62.6589 67.5901 61.3962 69.9355 59.4967L70.2304 59.2498C70.4683 59.0453 70.7061 58.8478 70.9281 58.6397C71.0042 58.5762 71.0772 58.5092 71.1501 58.4351L71.334 58.2447L71.3911 58.1918C72.74 56.8474 73.9075 55.2936 74.8575 53.5785C74.867 53.5574 74.8733 53.5291 74.8575 53.508C74.8504 53.499 74.8418 53.4918 74.8321 53.4868C74.8212 53.4813 74.8092 53.4789 74.7972 53.4798C74.7858 53.4816 74.7749 53.4864 74.7655 53.4939L74.7021 53.5468L74.1185 54.1393C72.9241 55.4725 71.5002 56.5241 69.9319 57.2313C68.3637 57.9385 66.6833 58.2867 64.9913 58.2552C63.0038 58.257 61.0442 57.7362 59.2722 56.7352C57.5003 55.7343 55.9662 54.2816 54.7952 52.4958C53.2054 50.0944 52.3495 47.1895 52.3533 44.2075V43.2199H77.5817V43.2164ZM58.6897 24.0087C60.363 24.0125 61.9666 24.7543 63.1486 26.0715C64.3306 27.3886 64.9944 29.1735 64.9944 31.0344V42.4123H52.3723V31.0344C52.3731 29.1713 53.039 27.3849 54.2236 26.0675C55.4081 24.7502 57.0145 24.0097 58.6897 24.0087Z" fill="white"/>
</svg>
